PathFileType	4	(X/Y/Z)	TRAIL_071_Static_01_markers.trc
DataRate	CameraRate	NumFrames	NumMarkers	Units	OrigDataRate	OrigDataStartFrame	OrigNumFrames
200	200	4	48	mm	200	49	391
Frame#	Time	RSH			LSH			C7			LELB			LWR			RELB			RWR			RASI			LASI			SACR			P1			P2			LTHLP			LTHLD			LTHAP			LTHAD			LLEPI			LPAT			LMEPI			LTIAP			LTIAD			LTILAT			LLMAL			LMMAL			LHEEL			LMFS			LMFL			LP5MT			LP1MT			LTOE			RTHLP			RTHLD			RTHAP			RTHAD			RLEPI			RPAT			RMEPI			RTIAP			RTIAD			RTILAT			RLMAL			RMMAL			RHEEL			RMFS			RMFL			RP5MT			RP1MT			RTOE			
		X1	Y1	Z1	X2	Y2	Z2	X3	Y3	Z3	X4	Y4	Z4	X5	Y5	Z5	X6	Y6	Z6	X7	Y7	Z7	X8	Y8	Z8	X9	Y9	Z9	X10	Y10	Z10	X11	Y11	Z11	X12	Y12	Z12	X13	Y13	Z13	X14	Y14	Z14	X15	Y15	Z15	X16	Y16	Z16	X17	Y17	Z17	X18	Y18	Z18	X19	Y19	Z19	X20	Y20	Z20	X21	Y21	Z21	X22	Y22	Z22	X23	Y23	Z23	X24	Y24	Z24	X25	Y25	Z25	X26	Y26	Z26	X27	Y27	Z27	X28	Y28	Z28	X29	Y29	Z29	X30	Y30	Z30	X31	Y31	Z31	X32	Y32	Z32	X33	Y33	Z33	X34	Y34	Z34	X35	Y35	Z35	X36	Y36	Z36	X37	Y37	Z37	X38	Y38	Z38	X39	Y39	Z39	X40	Y40	Z40	X41	Y41	Z41	X42	Y42	Z42	X43	Y43	Z43	X44	Y44	Z44	X45	Y45	Z45	X46	Y46	Z46	X47	Y47	Z47	X48	Y48	Z48
49	        0.2400000095	      125.0338795580	     1519.0006494522	      -64.1335248947	     -144.5159819923	     1527.4077653885	      -53.4982681274	      -10.4422272198	     1516.5709257126	       -5.8036446571	     -423.1777844034	     1400.4282951355	       -2.6574134827	     -681.7985829912	     1379.4075250626	      -76.0837793350	      410.1869407095	     1401.2764692307	      -40.8795475960	      659.7689929404	     1427.6725053787	     -163.8400554657	      137.6450750031	     1000.8095502853	     -160.9933376312	     -129.5895186267	     1014.3001079559	     -186.7310404778	       -4.3297415614	     1013.2229328156	        7.8472495079	      -48.1358860634	     1014.9809122086	        6.1811804771	       36.5363414385	     1014.5921707153	        7.9398155212	     -196.6233608327	      726.5844941139	     -115.8474087715	     -187.2458067737	      615.8378720284	     -114.6499514580	     -119.5713189445	      711.3795280457	     -216.8400883675	     -122.6145532928	      608.1273555756	     -194.5218443871	     -181.8514970146	      519.8627114296	     -111.4109158516	     -137.9562226139	      500.4985332489	     -167.7881479263	      -73.0590579115	      486.0249459743	     -113.5925054550	     -153.3440110288	      350.6328463554	     -133.9677572250	     -166.9053045116	      246.7397600412	     -121.0805177689	     -219.1564199529	      309.9720776081	      -69.7023272514	     -210.1818081937	      110.3420108557	      -63.1248950958	     -130.8308747612	      106.5834760666	      -88.5686278343	     -171.0470971666	       61.2971708179	       -1.6707777977	     -172.9631778799	       87.5064879656	     -175.4036545753	     -261.2218019567	       42.4384102225	     -155.7120680809	     -262.4975201688	       37.8613658249	     -220.2683687210	     -157.7494946323	       44.7250306606	     -219.0718650818	     -186.5973231397	       52.1243438125	     -258.2166194916	      190.0082024731	      729.1181087494	      -97.8891253471	      180.8449718155	      632.8738927841	      -95.5619215965	      122.3481017150	      721.6554284096	     -205.6971192360	      118.2944941320	      627.7492642403	     -188.3306503296	      173.5114845433	      514.7731304169	      -95.6509709358	      129.9328151144	      493.9926564693	     -155.3875207901	       57.1471619405	      487.3417019844	     -106.8440079689	      151.7240348257	      358.8342964649	     -119.6845173836	      157.8887793221	      250.4462301731	     -101.3264656067	      206.6866251625	      326.3775110245	      -48.4933257103	      195.4146119751	      106.3400283456	      -26.2101292610	      119.2490327157	      118.2016953826	      -58.8307976723	      152.5305601754	       61.9193091989	       27.8123617172	      160.0729021229	       86.0910862684	     -148.2896804810	      243.8542040982	       38.9880500734	     -128.3635497093	      247.1175136961	       36.6834104061	     -185.1165890694	      143.0576684870	       40.7898239791	     -201.0081410408	      176.7126562991	       51.6541078687	     -245.4251646996
50	        0.2450000048	      125.0118928947	     1519.0148353577	      -64.1152858734	     -144.5492562852	     1527.4450778961	      -53.5517930984	      -10.4710944943	     1516.6227817535	       -5.7764053345	     -423.2514259420	     1400.4546403885	       -2.7668476105	     -681.8349418245	     1379.3554306030	      -76.2600302696	      410.1726355948	     1401.2508392334	      -40.8667325974	      659.7182097830	     1427.6031255722	     -163.8613939285	      137.5975552000	     1000.8414983749	     -160.7803702354	     -129.6215263210	     1014.3102407455	     -186.5493655205	       -4.4186251253	     1013.2625102997	        8.0468654633	      -48.1877197526	     1015.0245428085	        6.3818097115	       36.4369134404	     1014.6203041077	        8.1398487091	     -196.5849754415	      726.5762686729	     -115.6594157219	     -187.2783807121	      615.8246994019	     -114.4264936447	     -119.6096074782	      711.3683819771	     -216.6145443916	     -122.6513517104	      608.1176996231	     -194.3125128746	     -181.8815079532	      519.8723673820	     -111.2370491028	     -137.9966792665	      500.5008578300	     -167.5681471825	      -73.0863195859	      486.0232472420	     -113.4255528450	     -153.3900258146	      350.6457209587	     -133.8668465614	     -166.9243034921	      246.7481046915	     -120.9906339645	     -219.1857901416	      309.9942505360	      -69.5988535881	     -210.1675030790	      110.3144362569	      -63.1206035614	     -130.8566090665	      106.5669953823	      -88.5243415833	     -171.0701492630	       61.3082163036	       -1.6522407532	     -172.9932484232	       87.5006988645	     -175.4123568535	     -261.2047550283	       42.3500388861	     -155.7353138924	     -262.4858376585	       37.8916710615	     -220.2886939049	     -157.7419844471	       44.7190143168	     -219.0607190132	     -186.5888592802	       52.1348863840	     -258.2188248634	      189.9464371600	      729.0851473808	      -97.8342890739	      180.8284166254	      632.8403353691	      -95.6011414528	      122.3252954878	      721.7142581940	     -205.6225538254	      118.3151992955	      627.8261542320	     -188.3606314659	      173.4197678961	      514.7100687027	      -95.7362651825	      129.9618872799	      493.9925074577	     -155.5505990982	       57.1247952976	      487.3125553131	     -107.0054173470	      151.7889591851	      358.8476479053	     -119.7606325150	      157.8826400437	      250.4172921181	     -101.3660430908	      206.6747787394	      326.3795673847	      -48.6198663712	      195.4202446141	      106.3413843513	      -26.2258052826	      119.2283797063	      118.1857511401	      -58.8329434395	      152.0214322009	       61.9982965291	       27.7720093727	      160.0985768237	       86.0841795802	     -148.3087539673	      243.8577654757	       38.9802195132	     -128.3723115921	      247.1224310793	       36.6873443127	     -185.0982308388	      143.0908235707	       40.8065542579	     -200.9994983673	      176.6957136788	       51.6715161502	     -245.4538345337
51	        0.2500000000	      124.9967384138	     1519.0459489822	      -64.0658140182	     -144.5763316951	     1527.4916887283	      -53.5951256752	      -10.5204471402	     1516.7013406754	       -5.7758092880	     -423.2710060678	     1400.4949331284	       -2.8618574142	     -681.8531212411	     1379.3390989304	      -76.3774514198	      410.1072791018	     1401.2475013733	      -40.6087636948	      659.6530023016	     1427.5162220001	     -163.8536453247	      137.5549825825	     1000.8352994919	     -160.4999303818	     -129.6337750755	     1014.3132209778	     -186.3457560539	       -4.4481825098	     1013.3010149002	        8.2805752754	      -48.2698512278	     1015.0552988052	        6.5647959709	       36.3607647814	     1014.6389007568	        8.4882378578	     -196.6153142057	      726.6265749931	     -115.4048442841	     -187.3245147071	      615.8659458160	     -114.2146587372	     -119.6161937914	      711.3537788391	     -216.4210677147	     -122.6879117094	      608.1374287605	     -194.1152215004	     -181.9247511230	      519.8843479156	     -111.0398769379	     -138.0169597469	      500.5196332932	     -167.4112677574	      -73.0996859274	      486.0055148602	     -113.1837964058	     -153.4109321437	      350.6652414799	     -133.7007880211	     -166.9758019052	      246.7537522316	     -120.9020614624	     -219.2017343841	      309.9946081638	      -69.5176124573	     -210.1948467098	      110.3290244937	      -63.1094574928	     -130.8381018243	      106.5680086613	      -88.5113477707	     -171.0525062881	       61.3157115877	       -1.6657114029	     -172.9754564367	       87.4980986118	     -175.3807067871	     -261.2049338422	       42.4184538424	     -155.7177305222	     -262.4761817060	       37.9041172564	     -220.2894687653	     -157.7447560630	       44.7203740478	     -219.0587520599	     -186.5812149845	       52.1469488740	     -258.2264542580	      189.8986491360	      729.0555834770	      -97.7350473404	      180.7757708229	      632.8160762787	      -95.5963134766	      122.3376187481	      721.7805385590	     -205.5651545525	      118.2674410738	      627.8591752052	     -188.3513927460	      173.3786853947	      514.6874189377	      -95.8647727966	      129.9241128363	      493.9695298672	     -155.6851267815	       57.1218523182	      487.2939586639	     -107.1994900703	      151.7216655411	      358.8591516018	     -120.0038790703	      157.8724625506	      250.3750324249	     -101.4568805695	      206.6530528464	      326.3469934464	      -48.7256050110	      195.4345944323	      106.3647866249	      -26.2647867203	      119.1876697339	      118.1680038571	      -58.8443875313	      152.6775303282	       62.0333589613	       27.7609229088	      160.0573155083	       86.0680267215	     -148.2574939728	      243.8663634457	       38.9949344099	     -128.3906698227	      247.1002283492	       36.6869308054	     -185.1003170013	      143.0842819609	       40.8061668277	     -201.0266184807	      176.7058315672	       51.6868457198	     -245.4251646996
52	        0.2549999952	      124.9694320359	     1519.0491676331	      -63.9964938164	     -144.5958671175	     1527.5256633759	      -53.5970330238	      -10.5508091874	     1516.7469978333	       -5.7464838028	     -423.3053979478	     1400.5149602890	       -2.9390454292	     -681.8713006578	     1379.2984485626	      -76.5398740768	      410.1300778784	     1401.2759923935	      -40.5452251434	      659.5846953787	     1427.4260997772	     -163.8588905334	      137.5189366736	     1000.8610486984	     -160.2795720100	     -129.6705362402	     1014.2827033997	     -186.1549019814	       -4.5684758588	     1013.3295059204	        8.4967017174	      -48.2754577897	     1015.0598287582	        6.7378878593	       36.3254192271	     1014.7117376328	        8.7047815323	     -196.7518684469	      726.5650033951	     -115.2009963989	     -187.3695460163	      615.8527135849	     -114.0155792236	     -119.6354907952	      711.3549709320	     -216.1974310875	     -122.7090192042	      608.1281900406	     -193.8909888268	     -181.9639709793	      519.8985338211	     -110.8406782150	     -138.0741504036	      500.5181431770	     -167.1784520149	      -73.1597078047	      486.0037267208	     -112.9644513130	     -153.4532216392	      350.7025539875	     -133.5106492043	     -166.9941899381	      246.7757314444	     -120.8108663559	     -218.8155111871	      309.8924458027	      -69.4293975830	     -210.2310863338	      110.3354766965	      -63.0870461464	     -130.8768001400	      106.5744087100	      -88.5034799576	     -171.0638013683	       61.3161027431	       -1.6686916351	     -173.0060038171	       87.5136852264	     -175.3708124161	     -261.2285372816	       42.4569733441	     -155.7214856148	     -262.5055667959	       37.9377938807	     -220.2799916267	     -157.7493158184	       44.7252392769	     -219.0396189690	     -186.5798440776	       52.1778501570	     -258.2317590714	      189.8379418053	      729.0233373642	      -97.6676344872	      180.7374003329	      632.8021883965	      -95.6303477287	      122.2876775064	      721.7940092087	     -205.4547071457	      118.2565036215	      627.9134750366	     -188.3744001389	      173.2891443171	      514.6512985229	      -95.9505438805	      129.9223544993	      493.9627945423	     -155.8226346970	       57.0988784530	      487.3063266277	     -107.3635220528	      151.5869590439	      358.6894273758	     -120.1412677765	      157.8473689951	      250.3489851952	     -101.4981865883	      206.6205683150	      326.3267874718	      -48.8126873970	      195.4489740529	      106.3762530684	      -26.2700319290	      119.2321422495	      118.1999668479	      -58.8699579239	      152.3116770186	       62.1408745646	       27.6953577995	      160.1834091343	       86.2604528666	     -148.3741402626	      243.8491973080	       38.9905534685	     -128.3674240112	      247.1149506964	       36.6899929941	     -185.1117610931	      143.0598887600	       40.8757887781	     -201.0494470596	      176.6946705975	       51.7162196338	     -245.4502582550
